<mxfile host="app.diagrams.net" modified="2024-02-02T09:59:56.793Z" agent="Mozilla/5.0 (Windows NT 10.0; Win64; x64) AppleWebKit/537.36 (KHTML, like Gecko) Chrome/121.0.0.0 Safari/537.36" etag="pLkbIOgKZGEIOcDkNM8q" version="23.0.2" type="github">
  <diagram name="第 1 页" id="9Wy57vLdWNZvY6cCVtTI">
    <mxGraphModel dx="1728" dy="950" grid="1" gridSize="10" guides="1" tooltips="1" connect="1" arrows="1" fold="1" page="1" pageScale="1" pageWidth="1169" pageHeight="827" math="0" shadow="0">
      <root>
        <mxCell id="0" />
        <mxCell id="1" parent="0" />
        <mxCell id="MBymmYlp3hh2KS27ztZ8-3" value="" style="edgeStyle=orthogonalEdgeStyle;rounded=0;orthogonalLoop=1;jettySize=auto;html=1;" parent="1" source="MBymmYlp3hh2KS27ztZ8-1" target="MBymmYlp3hh2KS27ztZ8-2" edge="1">
          <mxGeometry relative="1" as="geometry" />
        </mxCell>
        <mxCell id="e2LnPuanKAm1eNY4E1Dq-16" style="edgeStyle=orthogonalEdgeStyle;rounded=0;orthogonalLoop=1;jettySize=auto;html=1;exitX=1;exitY=0.5;exitDx=0;exitDy=0;entryX=0;entryY=0.5;entryDx=0;entryDy=0;curved=1;" parent="1" source="MBymmYlp3hh2KS27ztZ8-1" target="e2LnPuanKAm1eNY4E1Dq-3" edge="1">
          <mxGeometry relative="1" as="geometry">
            <Array as="points">
              <mxPoint x="300" y="180" />
              <mxPoint x="300" y="340" />
            </Array>
          </mxGeometry>
        </mxCell>
        <mxCell id="MBymmYlp3hh2KS27ztZ8-1" value="1:&lt;i&gt;a&lt;/i&gt;" style="rounded=1;whiteSpace=wrap;html=1;fontFamily=Times New Roman;fontSize=24;" parent="1" vertex="1">
          <mxGeometry x="200" y="160" width="80" height="40" as="geometry" />
        </mxCell>
        <mxCell id="MBymmYlp3hh2KS27ztZ8-5" value="" style="edgeStyle=orthogonalEdgeStyle;rounded=0;orthogonalLoop=1;jettySize=auto;html=1;" parent="1" source="MBymmYlp3hh2KS27ztZ8-2" target="MBymmYlp3hh2KS27ztZ8-4" edge="1">
          <mxGeometry relative="1" as="geometry" />
        </mxCell>
        <mxCell id="emL9zqz9t0unkgB7RnMO-1" style="edgeStyle=orthogonalEdgeStyle;rounded=0;orthogonalLoop=1;jettySize=auto;html=1;exitX=1;exitY=0.5;exitDx=0;exitDy=0;entryX=0;entryY=0.5;entryDx=0;entryDy=0;curved=1;" edge="1" parent="1" source="MBymmYlp3hh2KS27ztZ8-2" target="MBymmYlp3hh2KS27ztZ8-8">
          <mxGeometry relative="1" as="geometry" />
        </mxCell>
        <mxCell id="MBymmYlp3hh2KS27ztZ8-2" value="2:&lt;i&gt;a,b&lt;/i&gt;" style="rounded=1;whiteSpace=wrap;html=1;fontFamily=Times New Roman;fontSize=24;labelBackgroundColor=none;fillColor=none;strokeColor=#36393d;" parent="1" vertex="1">
          <mxGeometry x="320" y="160" width="80" height="40" as="geometry" />
        </mxCell>
        <mxCell id="MBymmYlp3hh2KS27ztZ8-7" value="" style="edgeStyle=orthogonalEdgeStyle;rounded=0;orthogonalLoop=1;jettySize=auto;html=1;" parent="1" source="MBymmYlp3hh2KS27ztZ8-4" target="MBymmYlp3hh2KS27ztZ8-6" edge="1">
          <mxGeometry relative="1" as="geometry" />
        </mxCell>
        <mxCell id="MBymmYlp3hh2KS27ztZ8-4" value="3:&lt;i&gt;c&lt;/i&gt;" style="rounded=1;whiteSpace=wrap;html=1;fontFamily=Times New Roman;fontSize=24;fillColor=none;strokeColor=#36393d;" parent="1" vertex="1">
          <mxGeometry x="440" y="160" width="80" height="40" as="geometry" />
        </mxCell>
        <mxCell id="e2LnPuanKAm1eNY4E1Dq-11" value="" style="edgeStyle=orthogonalEdgeStyle;rounded=0;orthogonalLoop=1;jettySize=auto;html=1;" parent="1" source="MBymmYlp3hh2KS27ztZ8-6" target="e2LnPuanKAm1eNY4E1Dq-7" edge="1">
          <mxGeometry relative="1" as="geometry" />
        </mxCell>
        <mxCell id="MBymmYlp3hh2KS27ztZ8-6" value="6:&lt;i style=&quot;border-color: var(--border-color);&quot;&gt;e,&lt;/i&gt;&lt;i&gt;f&lt;/i&gt;" style="rounded=1;whiteSpace=wrap;html=1;fontFamily=Times New Roman;fontSize=24;" parent="1" vertex="1">
          <mxGeometry x="680" y="160" width="80" height="40" as="geometry" />
        </mxCell>
        <mxCell id="MBymmYlp3hh2KS27ztZ8-10" value="" style="edgeStyle=orthogonalEdgeStyle;rounded=0;orthogonalLoop=1;jettySize=auto;html=1;" parent="1" source="MBymmYlp3hh2KS27ztZ8-8" target="MBymmYlp3hh2KS27ztZ8-9" edge="1">
          <mxGeometry relative="1" as="geometry" />
        </mxCell>
        <mxCell id="MBymmYlp3hh2KS27ztZ8-8" value="4:&lt;i&gt;b,d&lt;/i&gt;" style="rounded=1;whiteSpace=wrap;html=1;fontFamily=Times New Roman;fontSize=24;fillColor=none;strokeColor=#36393d;" parent="1" vertex="1">
          <mxGeometry x="440" y="240" width="80" height="40" as="geometry" />
        </mxCell>
        <mxCell id="MBymmYlp3hh2KS27ztZ8-13" style="edgeStyle=orthogonalEdgeStyle;rounded=0;orthogonalLoop=1;jettySize=auto;html=1;entryX=0;entryY=0.5;entryDx=0;entryDy=0;curved=1;" parent="1" source="MBymmYlp3hh2KS27ztZ8-9" target="MBymmYlp3hh2KS27ztZ8-6" edge="1">
          <mxGeometry relative="1" as="geometry" />
        </mxCell>
        <mxCell id="e2LnPuanKAm1eNY4E1Dq-12" value="" style="edgeStyle=orthogonalEdgeStyle;rounded=0;orthogonalLoop=1;jettySize=auto;html=1;" parent="1" source="MBymmYlp3hh2KS27ztZ8-9" target="e2LnPuanKAm1eNY4E1Dq-10" edge="1">
          <mxGeometry relative="1" as="geometry" />
        </mxCell>
        <mxCell id="MBymmYlp3hh2KS27ztZ8-9" value="5:&lt;i style=&quot;border-color: var(--border-color);&quot;&gt;d,&lt;/i&gt;&lt;i&gt;e&lt;/i&gt;" style="rounded=1;whiteSpace=wrap;html=1;fontFamily=Times New Roman;fontSize=24;fillColor=none;strokeColor=#36393d;" parent="1" vertex="1">
          <mxGeometry x="560" y="240" width="80" height="40" as="geometry" />
        </mxCell>
        <mxCell id="MBymmYlp3hh2KS27ztZ8-15" value="" style="endArrow=none;dashed=1;html=1;rounded=0;" parent="1" edge="1">
          <mxGeometry width="50" height="50" relative="1" as="geometry">
            <mxPoint x="120" y="220" as="sourcePoint" />
            <mxPoint x="880" y="220" as="targetPoint" />
          </mxGeometry>
        </mxCell>
        <mxCell id="MBymmYlp3hh2KS27ztZ8-16" value="Graphics" style="text;html=1;strokeColor=none;fillColor=none;align=center;verticalAlign=middle;whiteSpace=wrap;rounded=0;fontFamily=Times New Roman;fontSize=16;" parent="1" vertex="1">
          <mxGeometry x="120" y="165" width="60" height="30" as="geometry" />
        </mxCell>
        <mxCell id="MBymmYlp3hh2KS27ztZ8-17" value="Compute" style="text;html=1;strokeColor=none;fillColor=none;align=center;verticalAlign=middle;whiteSpace=wrap;rounded=0;fontFamily=Times New Roman;fontSize=16;" parent="1" vertex="1">
          <mxGeometry x="120" y="240" width="60" height="30" as="geometry" />
        </mxCell>
        <mxCell id="emL9zqz9t0unkgB7RnMO-3" style="edgeStyle=orthogonalEdgeStyle;rounded=0;orthogonalLoop=1;jettySize=auto;html=1;exitX=1;exitY=0.5;exitDx=0;exitDy=0;entryX=0;entryY=0.5;entryDx=0;entryDy=0;curved=1;" edge="1" parent="1" source="e2LnPuanKAm1eNY4E1Dq-3" target="e2LnPuanKAm1eNY4E1Dq-10">
          <mxGeometry relative="1" as="geometry">
            <Array as="points">
              <mxPoint x="660" y="340" />
              <mxPoint x="660" y="260" />
            </Array>
          </mxGeometry>
        </mxCell>
        <mxCell id="e2LnPuanKAm1eNY4E1Dq-3" value="7:&lt;i&gt;a,g&lt;/i&gt;" style="rounded=1;whiteSpace=wrap;html=1;fontFamily=Times New Roman;fontSize=24;fillColor=none;strokeColor=#36393d;" parent="1" vertex="1">
          <mxGeometry x="440" y="320" width="80" height="40" as="geometry" />
        </mxCell>
        <mxCell id="e2LnPuanKAm1eNY4E1Dq-4" value="" style="endArrow=none;dashed=1;html=1;rounded=0;" parent="1" edge="1">
          <mxGeometry width="50" height="50" relative="1" as="geometry">
            <mxPoint x="120" y="300" as="sourcePoint" />
            <mxPoint x="880" y="300" as="targetPoint" />
          </mxGeometry>
        </mxCell>
        <mxCell id="e2LnPuanKAm1eNY4E1Dq-5" value="Copy" style="text;html=1;strokeColor=none;fillColor=none;align=left;verticalAlign=middle;whiteSpace=wrap;rounded=0;fontFamily=Times New Roman;fontSize=16;" parent="1" vertex="1">
          <mxGeometry x="120" y="320" width="60" height="30" as="geometry" />
        </mxCell>
        <mxCell id="e2LnPuanKAm1eNY4E1Dq-7" value="9:&lt;i&gt;f,h&lt;/i&gt;" style="rounded=1;whiteSpace=wrap;html=1;fontFamily=Times New Roman;fontSize=24;" parent="1" vertex="1">
          <mxGeometry x="800" y="160" width="80" height="40" as="geometry" />
        </mxCell>
        <mxCell id="e2LnPuanKAm1eNY4E1Dq-13" style="edgeStyle=orthogonalEdgeStyle;rounded=0;orthogonalLoop=1;jettySize=auto;html=1;entryX=0;entryY=0.5;entryDx=0;entryDy=0;curved=1;" parent="1" source="e2LnPuanKAm1eNY4E1Dq-10" target="e2LnPuanKAm1eNY4E1Dq-7" edge="1">
          <mxGeometry relative="1" as="geometry" />
        </mxCell>
        <mxCell id="e2LnPuanKAm1eNY4E1Dq-10" value="8:&lt;i&gt;g,h&lt;/i&gt;" style="rounded=1;whiteSpace=wrap;html=1;fontFamily=Times New Roman;fontSize=24;fillColor=none;strokeColor=#36393d;" parent="1" vertex="1">
          <mxGeometry x="680" y="240" width="80" height="40" as="geometry" />
        </mxCell>
      </root>
    </mxGraphModel>
  </diagram>
</mxfile>
